<svg xmlns="http://www.w3.org/2000/svg" xmlns:xlink="http://www.w3.org/1999/xlink" width="375" viewBox="0 0 375 375" height="375" version="1.0"><defs><g id="b"><path d="M 1.378906 -11.078125 L 1.378906 0 L 3.265625 0 L 3.265625 -4.597656 L 7.121094 -4.597656 L 7.121094 -6.5 L 3.265625 -6.5 L 3.265625 -9.175781 L 8.367188 -9.175781 L 8.367188 -11.078125 Z M 1.378906 -11.078125"/></g><g id="c"><path d="M 11.214844 -2.710938 C 11.71875 -3.570312 11.972656 -4.511719 11.972656 -5.539062 C 11.972656 -6.550781 11.71875 -7.476562 11.214844 -8.351562 C 10.707031 -9.226562 10.035156 -9.917969 9.175781 -10.421875 C 8.316406 -10.925781 7.375 -11.179688 6.363281 -11.179688 C 5.355469 -11.179688 4.410156 -10.925781 3.550781 -10.421875 C 2.695312 -9.917969 2.019531 -9.242188 1.515625 -8.367188 C 1.011719 -7.507812 0.757812 -6.566406 0.757812 -5.539062 C 0.757812 -4.527344 1.011719 -3.585938 1.515625 -2.710938 C 2.019531 -1.835938 2.695312 -1.160156 3.570312 -0.65625 C 4.429688 -0.152344 5.355469 0.101562 6.363281 0.101562 C 7.375 0.101562 8.300781 -0.132812 9.160156 -0.640625 C 10.019531 -1.144531 10.707031 -1.835938 11.214844 -2.710938 Z M 9.582031 -7.425781 C 9.902344 -6.835938 10.070312 -6.214844 10.070312 -5.539062 C 10.070312 -4.867188 9.902344 -4.226562 9.582031 -3.652344 C 9.242188 -3.082031 8.804688 -2.625 8.234375 -2.289062 C 7.660156 -1.953125 7.039062 -1.785156 6.363281 -1.785156 C 5.691406 -1.785156 5.066406 -1.953125 4.496094 -2.289062 C 3.921875 -2.625 3.484375 -3.082031 3.164062 -3.671875 C 2.828125 -4.242188 2.660156 -4.867188 2.660156 -5.539062 C 2.660156 -6.214844 2.8125 -6.835938 3.148438 -7.410156 C 3.484375 -7.980469 3.941406 -8.453125 4.511719 -8.789062 C 5.066406 -9.125 5.691406 -9.292969 6.363281 -9.292969 C 7.019531 -9.292969 7.644531 -9.125 8.214844 -8.789062 C 8.789062 -8.453125 9.242188 -7.996094 9.582031 -7.425781 Z M 9.582031 -7.425781"/></g><g id="d"><path d="M 0.824219 -11.078125 L 0.824219 -9.175781 L 4.140625 -9.175781 L 4.140625 0 L 6.027344 0 L 6.027344 -9.175781 L 9.363281 -9.175781 L 9.363281 -11.078125 Z M 0.824219 -11.078125"/></g><g id="e"><path d="M 9.394531 -3.183594 C 9.394531 -3.722656 9.226562 -4.242188 8.90625 -4.730469 C 8.585938 -5.203125 8.148438 -5.605469 7.59375 -5.925781 C 7.105469 -6.164062 6.363281 -6.347656 5.371094 -6.484375 C 4.648438 -6.566406 4.140625 -6.667969 3.871094 -6.800781 C 3.601562 -6.902344 3.382812 -7.070312 3.214844 -7.273438 C 3.046875 -7.476562 2.980469 -7.695312 2.980469 -7.914062 C 2.980469 -8.214844 3.164062 -8.519531 3.535156 -8.804688 C 3.753906 -8.957031 4.007812 -9.074219 4.308594 -9.175781 C 4.613281 -9.261719 4.917969 -9.3125 5.238281 -9.3125 C 5.523438 -9.3125 5.824219 -9.261719 6.164062 -9.175781 C 6.5 -9.058594 6.800781 -8.890625 7.070312 -8.671875 C 7.339844 -8.453125 7.476562 -8.199219 7.492188 -7.929688 L 9.191406 -8.90625 C 8.957031 -9.480469 8.585938 -9.949219 8.066406 -10.339844 C 7.679688 -10.609375 7.238281 -10.828125 6.75 -10.976562 C 6.261719 -11.128906 5.757812 -11.214844 5.238281 -11.214844 C 4.699219 -11.214844 4.191406 -11.128906 3.703125 -10.976562 C 3.214844 -10.828125 2.777344 -10.609375 2.40625 -10.339844 C 1.988281 -10.019531 1.667969 -9.648438 1.429688 -9.226562 C 1.195312 -8.804688 1.09375 -8.367188 1.09375 -7.914062 C 1.09375 -7.324219 1.261719 -6.785156 1.597656 -6.28125 C 1.9375 -5.773438 2.375 -5.386719 2.914062 -5.136719 C 3.453125 -4.882812 4.175781 -4.714844 5.101562 -4.613281 C 5.910156 -4.511719 6.449219 -4.394531 6.683594 -4.261719 C 6.921875 -4.125 7.121094 -3.957031 7.273438 -3.773438 C 7.410156 -3.570312 7.492188 -3.382812 7.492188 -3.183594 C 7.492188 -2.878906 7.308594 -2.574219 6.9375 -2.289062 C 6.703125 -2.121094 6.449219 -2.003906 6.144531 -1.917969 C 5.84375 -1.820312 5.539062 -1.785156 5.238281 -1.785156 C 4.917969 -1.785156 4.613281 -1.820312 4.308594 -1.917969 C 4.007812 -2.003906 3.753906 -2.121094 3.535156 -2.289062 C 3.367188 -2.390625 3.25 -2.507812 3.148438 -2.660156 C 3.046875 -2.796875 2.980469 -2.964844 2.980469 -3.132812 L 1.296875 -2.171875 C 1.5 -1.617188 1.867188 -1.144531 2.40625 -0.757812 C 2.777344 -0.472656 3.214844 -0.253906 3.703125 -0.101562 C 4.191406 0.0507812 4.699219 0.117188 5.238281 0.117188 C 5.757812 0.117188 6.261719 0.0507812 6.75 -0.101562 C 7.238281 -0.253906 7.679688 -0.472656 8.066406 -0.757812 C 8.484375 -1.0625 8.804688 -1.429688 9.042969 -1.851562 C 9.277344 -2.273438 9.394531 -2.710938 9.394531 -3.183594 Z M 9.394531 -3.183594"/></g><g id="f"><path d="M 1.378906 0 L 3.285156 0 L 3.265625 -4.292969 L 5.507812 -4.292969 C 5.996094 -4.292969 6.464844 -4.359375 6.921875 -4.527344 C 7.375 -4.699219 7.777344 -4.933594 8.148438 -5.238281 C 8.925781 -5.945312 9.3125 -6.75 9.3125 -7.695312 C 9.3125 -8.148438 9.210938 -8.585938 9.007812 -9.007812 C 8.804688 -9.429688 8.519531 -9.800781 8.148438 -10.136719 C 7.777344 -10.4375 7.375 -10.65625 6.921875 -10.828125 C 6.464844 -10.996094 5.996094 -11.078125 5.507812 -11.078125 L 1.378906 -11.078125 Z M 3.265625 -6.195312 L 3.265625 -9.175781 L 5.507812 -9.175781 C 6.042969 -9.175781 6.5 -9.023438 6.871094 -8.738281 C 7.222656 -8.4375 7.410156 -8.097656 7.410156 -7.695312 C 7.410156 -7.289062 7.238281 -6.953125 6.902344 -6.683594 C 6.53125 -6.347656 6.078125 -6.195312 5.507812 -6.195312 Z M 3.265625 -6.195312"/></g><g id="g"><path d="M 1.378906 -11.078125 L 1.378906 0 L 8.386719 0 L 8.386719 -1.886719 L 3.285156 -1.886719 L 3.285156 -11.078125 Z M 1.378906 -11.078125"/></g><g id="h"><path d="M 8.03125 -1.515625 L 8.703125 0 L 10.777344 0 L 5.894531 -11.078125 L 0.757812 0 L 2.84375 0 L 3.550781 -1.515625 Z M 7.191406 -3.417969 L 4.429688 -3.417969 L 5.84375 -6.484375 Z M 7.191406 -3.417969"/></g><g id="i"><path d="M 3.285156 -4.597656 L 7.914062 -4.597656 L 7.914062 0 L 9.816406 0 L 9.800781 -11.078125 L 7.914062 -11.078125 L 7.914062 -6.5 L 3.285156 -6.5 L 3.285156 -11.078125 L 1.398438 -11.078125 L 1.398438 0 L 3.285156 0 Z M 3.285156 -4.597656"/></g><clipPath id="a"><path d="M 124.613281 122.554688 L 256.613281 122.554688 L 256.613281 207.304688 L 124.613281 207.304688 Z M 124.613281 122.554688"/></clipPath></defs><path fill="#DE335E" d="M 170.859375 195.816406 L 170.859375 205.398438 L 194.203125 205.398438 L 194.203125 195.816406 C 193.816406 196.199219 193.417969 196.558594 192.996094 196.902344 C 192.578125 197.242188 192.144531 197.5625 191.695312 197.863281 C 191.246094 198.160156 190.78125 198.4375 190.304688 198.691406 C 189.828125 198.945312 189.339844 199.175781 188.839844 199.378906 C 188.339844 199.585938 187.832031 199.765625 187.316406 199.921875 C 186.800781 200.078125 186.277344 200.210938 185.746094 200.316406 C 185.214844 200.417969 184.683594 200.5 184.144531 200.550781 C 183.609375 200.605469 183.070312 200.628906 182.53125 200.628906 C 181.992188 200.628906 181.453125 200.605469 180.914062 200.550781 C 180.378906 200.5 179.84375 200.417969 179.316406 200.316406 C 178.785156 200.210938 178.261719 200.078125 177.746094 199.921875 C 177.230469 199.765625 176.722656 199.585938 176.222656 199.378906 C 175.722656 199.175781 175.234375 198.945312 174.757812 198.691406 C 174.28125 198.4375 173.816406 198.160156 173.367188 197.863281 C 172.917969 197.5625 172.484375 197.242188 172.0625 196.902344 C 171.644531 196.558594 171.242188 196.199219 170.859375 195.816406 Z M 170.859375 195.816406" fill-rule="evenodd"/><path fill="#DE335E" d="M 170.859375 159.742188 L 170.859375 172.132812 C 171.242188 171.753906 171.644531 171.390625 172.0625 171.050781 C 172.484375 170.710938 172.917969 170.390625 173.367188 170.089844 C 173.816406 169.792969 174.28125 169.515625 174.757812 169.261719 C 175.234375 169.007812 175.722656 168.78125 176.222656 168.574219 C 176.722656 168.367188 177.230469 168.1875 177.746094 168.03125 C 178.261719 167.875 178.785156 167.746094 179.316406 167.640625 C 179.84375 167.535156 180.378906 167.457031 180.914062 167.402344 C 181.453125 167.351562 181.992188 167.324219 182.53125 167.324219 C 183.070312 167.324219 183.609375 167.351562 184.144531 167.402344 C 184.683594 167.457031 185.214844 167.535156 185.746094 167.640625 C 186.273438 167.746094 186.796875 167.875 187.316406 168.03125 C 187.832031 168.1875 188.339844 168.367188 188.839844 168.574219 C 189.339844 168.78125 189.828125 169.007812 190.304688 169.261719 C 190.78125 169.515625 191.242188 169.792969 191.695312 170.089844 C 192.144531 170.390625 192.578125 170.710938 192.996094 171.050781 C 193.417969 171.390625 193.816406 171.753906 194.203125 172.132812 L 194.203125 159.742188 Z M 170.859375 159.742188" fill-rule="evenodd"/><path fill="#DE335E" d="M 172.199219 151.582031 C 173.210938 150.914062 174.308594 148.953125 174.800781 146.808594 C 176.15625 140.90625 170.246094 137.367188 169.214844 144.460938 C 165.816406 142.242188 161.097656 145.007812 164.777344 148.652344 C 166.898438 150.761719 171.125 152.066406 172.199219 151.582031 Z M 172.199219 151.582031" fill-rule="evenodd"/><path fill="#DE335E" d="M 180.03125 138.417969 C 180.871094 138.25 182.113281 137.269531 183.007812 135.984375 C 185.46875 132.484375 182.550781 128.585938 179.972656 132.9375 C 178.339844 130.574219 174.507812 131.109375 175.945312 134.488281 C 176.78125 136.460938 179.195312 138.449219 180.03125 138.417969 Z M 180.03125 138.417969" fill-rule="evenodd"/><path fill="#DE335E" d="M 167.675781 135.152344 C 168.359375 134.917969 169.289062 133.960938 169.902344 132.796875 C 171.582031 129.601562 168.71875 126.65625 167.039062 130.585938 C 165.417969 128.785156 162.277344 129.652344 163.835938 132.320312 C 164.742188 133.863281 166.980469 135.265625 167.675781 135.152344 Z M 167.675781 135.152344" fill-rule="evenodd"/><path fill="#F5AC37" d="M 170.859375 195.816406 L 170.859375 205.398438 L 158.828125 205.398438 L 158.828125 159.742188 L 170.859375 159.742188 L 170.859375 172.132812 L 170.792969 172.199219 C 170.410156 172.585938 170.042969 172.988281 169.699219 173.410156 C 169.355469 173.832031 169.03125 174.269531 168.726562 174.722656 C 168.425781 175.175781 168.148438 175.644531 167.890625 176.125 C 167.632812 176.605469 167.402344 177.097656 167.195312 177.601562 C 166.984375 178.105469 166.800781 178.621094 166.644531 179.140625 C 166.488281 179.664062 166.355469 180.191406 166.25 180.726562 C 166.140625 181.261719 166.0625 181.800781 166.007812 182.34375 C 165.957031 182.886719 165.929688 183.429688 165.929688 183.976562 C 165.929688 184.523438 165.957031 185.066406 166.007812 185.609375 C 166.0625 186.152344 166.140625 186.691406 166.25 187.226562 C 166.355469 187.761719 166.488281 188.289062 166.644531 188.8125 C 166.800781 189.332031 166.984375 189.847656 167.195312 190.351562 C 167.402344 190.855469 167.632812 191.347656 167.890625 191.828125 C 168.148438 192.308594 168.425781 192.777344 168.726562 193.230469 C 169.03125 193.683594 169.355469 194.121094 169.699219 194.542969 C 170.042969 194.964844 170.410156 195.367188 170.792969 195.753906 Z M 170.859375 195.816406" fill-rule="evenodd"/><path fill="#F5AC37" d="M 158.828125 173.054688 L 158.828125 159.742188 L 170.859375 159.742188 L 170.859375 172.132812 L 170.792969 172.199219 C 170.515625 172.476562 170.25 172.765625 169.996094 173.054688 Z M 158.828125 173.054688" fill-rule="evenodd"/><path fill="#F9E70F" d="M 150.402344 159.742188 L 158.828125 159.742188 L 158.828125 205.394531 L 150.402344 205.394531 Z M 150.402344 159.742188"/><path fill="#FFEE5F" d="M 150.402344 159.742188 L 158.828125 159.742188 L 158.828125 173.058594 L 150.402344 173.058594 Z M 150.402344 159.742188"/><path fill="#89C8B7" d="M 150.402344 159.742188 L 150.402344 205.398438 L 149.796875 205.398438 C 149.265625 205.398438 148.757812 205.296875 148.269531 205.09375 C 147.78125 204.886719 147.351562 204.597656 146.976562 204.222656 C 146.605469 203.847656 146.316406 203.417969 146.113281 202.925781 C 145.910156 202.4375 145.808594 201.929688 145.804688 201.398438 L 145.804688 163.742188 C 145.808594 163.480469 145.832031 163.21875 145.886719 162.960938 C 145.9375 162.703125 146.011719 162.453125 146.113281 162.210938 C 146.214844 161.96875 146.339844 161.738281 146.484375 161.519531 C 146.628906 161.300781 146.796875 161.101562 146.980469 160.914062 C 147.167969 160.730469 147.367188 160.5625 147.585938 160.417969 C 147.804688 160.273438 148.035156 160.148438 148.277344 160.046875 C 148.515625 159.949219 148.765625 159.871094 149.023438 159.820312 C 149.28125 159.769531 149.539062 159.742188 149.800781 159.742188 Z M 150.402344 159.742188" fill-rule="evenodd"/><path fill="#C8E5DF" d="M 148.210938 205.058594 C 147.855469 204.902344 147.53125 204.699219 147.234375 204.449219 C 146.9375 204.199219 146.683594 203.914062 146.472656 203.589844 C 146.257812 203.265625 146.097656 202.914062 145.984375 202.542969 C 145.871094 202.171875 145.816406 201.792969 145.8125 201.402344 L 145.8125 163.742188 C 145.816406 163.355469 145.871094 162.972656 145.984375 162.601562 C 146.097656 162.230469 146.257812 161.882812 146.472656 161.558594 C 146.683594 161.234375 146.9375 160.945312 147.234375 160.695312 C 147.53125 160.445312 147.855469 160.242188 148.210938 160.085938 Z M 148.210938 205.058594" fill-rule="evenodd"/><path fill="#C8E5E1" d="M 150.402344 159.742188 L 150.402344 173.054688 L 145.8125 173.054688 L 145.8125 163.742188 C 145.8125 163.210938 145.917969 162.703125 146.121094 162.214844 C 146.324219 161.722656 146.609375 161.292969 146.984375 160.917969 C 147.359375 160.542969 147.789062 160.253906 148.277344 160.050781 C 148.765625 159.847656 149.273438 159.746094 149.800781 159.742188 Z M 150.402344 159.742188" fill-rule="evenodd"/><path fill="#E3F2F1" d="M 148.210938 173.054688 L 145.8125 173.054688 L 145.8125 163.742188 C 145.816406 163.355469 145.871094 162.972656 145.984375 162.601562 C 146.097656 162.230469 146.257812 161.882812 146.472656 161.558594 C 146.683594 161.234375 146.9375 160.945312 147.234375 160.695312 C 147.53125 160.445312 147.855469 160.242188 148.210938 160.085938 Z M 148.210938 173.054688" fill-rule="evenodd"/><path fill="#FFF" d="M 182.53125 201.523438 C 183.105469 201.523438 183.675781 201.496094 184.246094 201.4375 C 184.816406 201.382812 185.378906 201.296875 185.941406 201.183594 C 186.503906 201.074219 187.058594 200.933594 187.605469 200.765625 C 188.15625 200.601562 188.695312 200.40625 189.222656 200.1875 C 189.753906 199.964844 190.269531 199.722656 190.773438 199.449219 C 191.28125 199.179688 191.769531 198.882812 192.246094 198.566406 C 192.722656 198.246094 193.183594 197.902344 193.625 197.539062 C 194.066406 197.175781 194.492188 196.789062 194.898438 196.382812 C 195.300781 195.976562 195.6875 195.550781 196.050781 195.105469 C 196.414062 194.664062 196.753906 194.203125 197.070312 193.722656 C 197.390625 193.246094 197.683594 192.753906 197.953125 192.246094 C 198.222656 191.738281 198.46875 191.222656 198.6875 190.691406 C 198.90625 190.160156 199.097656 189.617188 199.265625 189.070312 C 199.433594 188.519531 199.570312 187.960938 199.683594 187.398438 C 199.792969 186.835938 199.878906 186.265625 199.933594 185.695312 C 199.992188 185.125 200.019531 184.550781 200.019531 183.976562 C 200.019531 183.402344 199.992188 182.828125 199.933594 182.253906 C 199.878906 181.683594 199.792969 181.117188 199.683594 180.550781 C 199.570312 179.988281 199.429688 179.433594 199.265625 178.882812 C 199.097656 178.332031 198.90625 177.792969 198.6875 177.261719 C 198.46875 176.730469 198.222656 176.210938 197.953125 175.703125 C 197.683594 175.195312 197.390625 174.703125 197.070312 174.226562 C 196.753906 173.75 196.410156 173.289062 196.046875 172.84375 C 195.683594 172.398438 195.300781 171.972656 194.894531 171.566406 C 194.488281 171.160156 194.066406 170.777344 193.625 170.410156 C 193.179688 170.046875 192.722656 169.703125 192.246094 169.386719 C 191.769531 169.066406 191.277344 168.769531 190.773438 168.5 C 190.265625 168.230469 189.75 167.984375 189.222656 167.765625 C 188.691406 167.542969 188.152344 167.351562 187.605469 167.183594 C 187.058594 167.015625 186.5 166.878906 185.941406 166.765625 C 185.378906 166.652344 184.8125 166.570312 184.242188 166.511719 C 183.671875 166.457031 183.101562 166.429688 182.527344 166.429688 C 181.953125 166.429688 181.382812 166.457031 180.8125 166.511719 C 180.242188 166.570312 179.675781 166.652344 179.117188 166.765625 C 178.554688 166.878906 178 167.015625 177.449219 167.183594 C 176.902344 167.351562 176.363281 167.542969 175.835938 167.765625 C 175.304688 167.984375 174.789062 168.230469 174.28125 168.5 C 173.777344 168.773438 173.285156 169.066406 172.808594 169.386719 C 172.335938 169.707031 171.875 170.046875 171.429688 170.410156 C 170.988281 170.777344 170.566406 171.160156 170.160156 171.566406 C 169.753906 171.976562 169.371094 172.398438 169.007812 172.84375 C 168.644531 173.289062 168.304688 173.75 167.984375 174.226562 C 167.667969 174.707031 167.371094 175.199219 167.101562 175.703125 C 166.832031 176.210938 166.585938 176.730469 166.367188 177.261719 C 166.148438 177.792969 165.957031 178.332031 165.789062 178.882812 C 165.625 179.433594 165.484375 179.988281 165.371094 180.550781 C 165.261719 181.117188 165.175781 181.683594 165.121094 182.253906 C 165.066406 182.828125 165.035156 183.402344 165.035156 183.976562 C 165.039062 184.550781 165.066406 185.121094 165.125 185.695312 C 165.179688 186.265625 165.265625 186.832031 165.378906 187.398438 C 165.492188 187.960938 165.632812 188.515625 165.796875 189.066406 C 165.964844 189.617188 166.15625 190.15625 166.378906 190.6875 C 166.597656 191.214844 166.84375 191.734375 167.113281 192.242188 C 167.382812 192.746094 167.675781 193.238281 167.996094 193.71875 C 168.3125 194.195312 168.65625 194.65625 169.019531 195.097656 C 169.382812 195.542969 169.765625 195.96875 170.171875 196.375 C 170.574219 196.78125 171 197.164062 171.441406 197.53125 C 171.882812 197.894531 172.34375 198.238281 172.820312 198.554688 C 173.296875 198.875 173.785156 199.171875 174.292969 199.441406 C 174.796875 199.710938 175.3125 199.957031 175.839844 200.179688 C 176.371094 200.398438 176.910156 200.59375 177.457031 200.761719 C 178.003906 200.925781 178.558594 201.066406 179.121094 201.179688 C 179.683594 201.292969 180.246094 201.378906 180.816406 201.433594 C 181.386719 201.492188 181.957031 201.523438 182.53125 201.523438 Z M 182.53125 201.523438" fill-rule="evenodd"/><path fill="#203344" d="M 191.660156 174.816406 C 192.261719 175.417969 192.796875 176.070312 193.265625 176.777344 C 193.738281 177.488281 194.136719 178.234375 194.460938 179.019531 C 194.785156 179.804688 195.03125 180.613281 195.195312 181.449219 C 195.359375 182.28125 195.441406 183.125 195.441406 183.976562 C 195.441406 184.828125 195.359375 185.667969 195.195312 186.503906 C 195.03125 187.335938 194.785156 188.148438 194.460938 188.933594 C 194.136719 189.71875 193.738281 190.464844 193.265625 191.171875 C 192.796875 191.878906 192.261719 192.535156 191.660156 193.136719 C 191.0625 193.738281 190.410156 194.273438 189.703125 194.746094 C 189 195.21875 188.253906 195.617188 187.472656 195.945312 C 186.6875 196.269531 185.882812 196.515625 185.050781 196.679688 C 184.21875 196.847656 183.378906 196.929688 182.53125 196.929688 C 181.683594 196.929688 180.84375 196.847656 180.011719 196.679688 C 179.179688 196.515625 178.371094 196.269531 177.589844 195.945312 C 176.804688 195.617188 176.0625 195.21875 175.355469 194.746094 C 174.652344 194.273438 174 193.738281 173.398438 193.136719 C 172.800781 192.535156 172.265625 191.878906 171.792969 191.171875 C 171.324219 190.464844 170.925781 189.71875 170.601562 188.933594 C 170.277344 188.148438 170.03125 187.335938 169.867188 186.503906 C 169.699219 185.667969 169.617188 184.828125 169.617188 183.976562 C 169.617188 183.125 169.699219 182.28125 169.867188 181.449219 C 170.03125 180.613281 170.277344 179.804688 170.601562 179.019531 C 170.925781 178.234375 171.324219 177.488281 171.792969 176.777344 C 172.265625 176.070312 172.800781 175.417969 173.398438 174.816406 C 174 174.214844 174.652344 173.679688 175.355469 173.207031 C 176.0625 172.734375 176.804688 172.332031 177.589844 172.007812 C 178.371094 171.683594 179.179688 171.4375 180.011719 171.269531 C 180.84375 171.105469 181.683594 171.023438 182.53125 171.023438 C 183.378906 171.023438 184.21875 171.105469 185.050781 171.269531 C 185.882812 171.4375 186.6875 171.683594 187.472656 172.007812 C 188.253906 172.332031 189 172.734375 189.703125 173.207031 C 190.410156 173.679688 191.0625 174.214844 191.660156 174.816406 Z M 191.660156 174.816406"/><path fill="#FFF" d="M 210.921875 164.226562 L 202.527344 164.226562 L 202.371094 164.386719 L 202.414062 168.527344 L 202.527344 168.574219 L 210.921875 168.574219 L 211.078125 168.414062 L 211.035156 164.273438 Z M 210.921875 164.226562" fill-rule="evenodd"/><path fill="#89C8B7" d="M 194.984375 172.972656 C 195.675781 173.757812 196.289062 174.601562 196.820312 175.507812 C 197.351562 176.410156 197.796875 177.355469 198.148438 178.339844 C 198.503906 179.328125 198.761719 180.339844 198.925781 181.375 C 199.089844 182.410156 199.15625 183.453125 199.121094 184.503906 C 199.089844 185.550781 198.960938 186.585938 198.730469 187.609375 C 198.503906 188.632812 198.179688 189.628906 197.765625 190.589844 C 197.351562 191.554688 196.847656 192.46875 196.261719 193.335938 C 195.675781 194.203125 195.011719 195.007812 194.269531 195.75 L 194.203125 195.816406 L 194.203125 205.398438 L 215.261719 205.398438 C 215.792969 205.398438 216.300781 205.296875 216.789062 205.09375 C 217.277344 204.890625 217.707031 204.601562 218.082031 204.226562 C 218.453125 203.851562 218.742188 203.417969 218.945312 202.929688 C 219.148438 202.4375 219.25 201.929688 219.253906 201.398438 L 219.253906 173.070312 L 195.0625 173.070312 C 195.039062 173.027344 195.007812 173 194.984375 172.972656 Z M 194.984375 172.972656"/><path fill="#89C8B7" d="M 194.203125 159.742188 L 194.203125 172.132812 L 194.246094 172.179688 L 194.203125 172.132812 Z M 194.203125 159.742188"/><path fill="#89C8B7" d="M 204.929688 155.269531 L 206.113281 157.367188 Z M 204.929688 155.269531"/><path fill="#B5DDD6" d="M 219.25 163.742188 C 219.246094 163.210938 219.144531 162.703125 218.941406 162.214844 C 218.738281 161.722656 218.449219 161.292969 218.078125 160.917969 C 217.703125 160.542969 217.273438 160.253906 216.785156 160.050781 C 216.296875 159.847656 215.789062 159.746094 215.257812 159.742188 L 194.203125 159.742188 L 194.203125 172.132812 L 194.246094 172.179688 L 194.269531 172.199219 C 194.515625 172.449219 194.75 172.710938 194.984375 172.972656 C 195.007812 173 195.039062 173.027344 195.0625 173.054688 L 219.25 173.054688 Z M 219.25 163.742188"/><path fill="#B5DDD6" d="M 206.339844 157.765625 L 206.113281 157.367188 L 204.925781 155.269531 L 204.535156 154.582031 C 204.347656 154.253906 204.089844 154 203.757812 153.820312 C 203.367188 153.621094 202.957031 153.527344 202.519531 153.535156 L 181.875 153.535156 C 181.4375 153.527344 181.027344 153.621094 180.640625 153.820312 C 180.304688 154 180.046875 154.253906 179.859375 154.582031 L 178.054688 157.765625 Z M 206.339844 157.765625"/><path fill="#F9CB81" d="M 163.847656 157.832031 L 163.847656 155.722656 C 163.847656 155.53125 163.78125 155.367188 163.644531 155.234375 C 163.511719 155.097656 163.347656 155.03125 163.15625 155.03125 L 154.40625 155.03125 C 154.21875 155.03125 154.054688 155.097656 153.921875 155.230469 C 153.789062 155.367188 153.71875 155.53125 153.71875 155.722656 L 153.71875 157.832031 Z M 163.847656 157.832031" fill-rule="evenodd"/><path fill="#F5AC37" d="M 163.847656 157.832031 L 163.847656 155.722656 C 163.847656 155.625 163.828125 155.53125 163.789062 155.441406 C 163.726562 155.425781 163.664062 155.414062 163.601562 155.414062 L 154.851562 155.414062 C 154.660156 155.417969 154.5 155.484375 154.367188 155.621094 C 154.230469 155.753906 154.164062 155.917969 154.160156 156.105469 L 154.160156 157.832031 Z M 163.847656 157.832031" fill-rule="evenodd"/><path fill="#C62855" d="M 194.203125 169.765625 L 194.203125 167.601562 C 191.515625 166.25 188.671875 165.578125 185.671875 165.585938 C 185.171875 165.585938 184.679688 165.601562 184.191406 165.640625 C 186.027344 165.804688 187.800781 166.238281 189.507812 166.941406 C 191.214844 167.644531 192.777344 168.585938 194.203125 169.765625 Z M 194.203125 169.765625" fill-rule="evenodd"/><path fill="#C62855" d="M 194.203125 198.199219 C 192.960938 199.222656 191.609375 200.070312 190.144531 200.738281 C 188.683594 201.40625 187.160156 201.875 185.574219 202.140625 C 183.992188 202.40625 182.398438 202.464844 180.800781 202.3125 C 179.199219 202.160156 177.644531 201.804688 176.140625 201.246094 C 177.503906 202.035156 178.945312 202.648438 180.464844 203.078125 C 181.980469 203.511719 183.527344 203.75 185.101562 203.796875 C 186.679688 203.847656 188.238281 203.699219 189.777344 203.359375 C 191.316406 203.019531 192.792969 202.496094 194.203125 201.789062 Z M 194.203125 198.199219" fill-rule="evenodd"/><path fill="#FFF" d="M 196.984375 174.09375 C 197.347656 174.625 197.679688 175.175781 197.980469 175.742188 L 196.984375 175.742188 Z M 196.984375 174.09375" fill-rule="evenodd"/><path fill="#79B1A3" d="M 196.699219 172.265625 L 200.152344 172.265625 C 198.480469 170.308594 196.492188 168.746094 194.195312 167.589844 L 194.195312 169.765625 C 194.652344 170.140625 195.089844 170.542969 195.511719 170.960938 C 195.929688 171.378906 196.328125 171.808594 196.699219 172.265625 Z M 196.699219 172.265625" fill-rule="evenodd"/><path fill="#79B1A3" d="M 219.25 175.742188 L 219.25 173.847656 L 196.984375 173.847656 L 196.984375 175.742188 L 198.957031 175.742188 C 199.386719 176.601562 199.746094 177.488281 200.035156 178.40625 C 200.324219 179.320312 200.539062 180.253906 200.683594 181.203125 C 200.828125 182.152344 200.898438 183.105469 200.894531 184.066406 C 200.886719 185.027344 200.808594 185.980469 200.65625 186.929688 C 200.5 187.878906 200.277344 188.808594 199.976562 189.71875 C 199.679688 190.632812 199.3125 191.515625 198.875 192.371094 C 198.4375 193.226562 197.9375 194.042969 197.375 194.820312 C 196.8125 195.59375 196.191406 196.324219 195.515625 197.003906 C 195.097656 197.421875 194.65625 197.820312 194.203125 198.199219 L 194.203125 201.792969 C 194.769531 201.507812 195.320312 201.195312 195.855469 200.855469 C 196.390625 200.519531 196.90625 200.152344 197.40625 199.761719 C 197.90625 199.371094 198.382812 198.953125 198.839844 198.515625 C 199.296875 198.074219 199.734375 197.613281 200.144531 197.132812 C 200.558594 196.648438 200.945312 196.148438 201.304688 195.625 C 201.667969 195.105469 202.003906 194.566406 202.3125 194.011719 C 202.621094 193.457031 202.902344 192.886719 203.152344 192.304688 C 203.40625 191.722656 203.628906 191.128906 203.820312 190.523438 C 204.015625 189.917969 204.179688 189.304688 204.308594 188.683594 C 204.441406 188.0625 204.542969 187.433594 204.613281 186.804688 C 204.683594 186.171875 204.722656 185.539062 204.730469 184.902344 C 204.738281 184.269531 204.710938 183.632812 204.65625 183 C 204.601562 182.367188 204.511719 181.738281 204.394531 181.113281 C 204.277344 180.492188 204.128906 179.875 203.949219 179.265625 C 203.769531 178.65625 203.558594 178.054688 203.320312 177.46875 C 203.082031 176.878906 202.8125 176.304688 202.515625 175.742188 Z M 219.25 175.742188" fill-rule="evenodd"/><g clip-path="url(#a)"><path fill="#203344" d="M 233.316406 131.121094 C 215.15625 117.828125 204.761719 121.484375 197.117188 131.996094 C 193.230469 137.347656 190.15625 144.460938 187.101562 151.957031 L 181.882812 151.957031 C 181.1875 151.953125 180.527344 152.109375 179.910156 152.4375 C 179.304688 152.753906 178.835938 153.210938 178.5 153.808594 L 176.222656 157.832031 L 165.429688 157.832031 L 165.429688 155.722656 C 165.429688 155.421875 165.371094 155.128906 165.253906 154.851562 C 165.140625 154.574219 164.976562 154.328125 164.761719 154.113281 C 164.550781 153.902344 164.304688 153.738281 164.027344 153.621094 C 163.75 153.503906 163.460938 153.449219 163.160156 153.449219 L 154.40625 153.449219 C 154.105469 153.449219 153.820312 153.507812 153.542969 153.621094 C 153.265625 153.738281 153.019531 153.902344 152.808594 154.117188 C 152.59375 154.328125 152.429688 154.574219 152.316406 154.851562 C 152.199219 155.132812 152.144531 155.421875 152.144531 155.722656 L 152.144531 157.832031 L 149.800781 157.832031 C 149.019531 157.832031 148.269531 157.980469 147.546875 158.28125 C 146.828125 158.582031 146.191406 159.011719 145.640625 159.566406 C 145.085938 160.117188 144.660156 160.757812 144.359375 161.480469 C 144.058594 162.203125 143.910156 162.957031 143.910156 163.738281 L 143.910156 170.03125 C 143.558594 170.035156 143.214844 170.09375 142.882812 170.207031 C 142.550781 170.320312 142.242188 170.484375 141.964844 170.695312 C 141.683594 170.910156 141.441406 171.160156 141.242188 171.449219 C 141.042969 171.742188 140.894531 172.054688 140.792969 172.390625 C 137.597656 172.695312 134.960938 173.304688 132.839844 174.195312 C 130.332031 175.234375 128.523438 176.632812 127.335938 178.21875 L 127.265625 178.164062 C 127.109375 178.046875 126.933594 178.003906 126.742188 178.039062 C 126.550781 178.074219 126.402344 178.171875 126.296875 178.335938 C 125.535156 179.515625 125.050781 180.796875 124.847656 182.1875 C 124.621094 183.867188 124.773438 185.515625 125.308594 187.125 C 126.792969 191.78125 132.613281 193.769531 139.023438 194.527344 C 140.636719 194.71875 142.285156 194.832031 143.90625 194.894531 L 143.90625 201.394531 C 143.90625 202.175781 144.058594 202.929688 144.355469 203.652344 C 144.65625 204.375 145.082031 205.015625 145.636719 205.566406 C 146.1875 206.125 146.824219 206.550781 147.546875 206.851562 C 148.269531 207.152344 149.019531 207.304688 149.800781 207.304688 L 215.257812 207.304688 C 215.644531 207.300781 216.027344 207.265625 216.410156 207.1875 C 216.789062 207.109375 217.15625 207 217.511719 206.847656 C 217.871094 206.699219 218.207031 206.519531 218.53125 206.300781 C 218.851562 206.085938 219.148438 205.84375 219.421875 205.566406 C 219.695312 205.292969 219.941406 204.996094 220.15625 204.671875 C 220.371094 204.351562 220.550781 204.011719 220.699219 203.652344 C 220.847656 203.292969 220.960938 202.925781 221.035156 202.542969 C 221.113281 202.164062 221.152344 201.78125 221.152344 201.390625 L 221.152344 176.597656 C 222.046875 176.589844 222.808594 176.269531 223.441406 175.636719 C 224.03125 175.046875 224.351562 174.335938 224.398438 173.503906 C 226.578125 172.6875 229.761719 172.011719 233.246094 171.269531 C 234.800781 170.941406 236.410156 170.601562 238.003906 170.234375 L 238.03125 170.34375 C 238.070312 170.523438 238.171875 170.664062 238.328125 170.761719 C 238.488281 170.863281 238.65625 170.890625 238.835938 170.847656 C 246.898438 168.933594 254.832031 166.144531 256.269531 160.019531 C 257.691406 153.96875 252.316406 145.03125 233.316406 131.121094 Z M 143.90625 191.734375 C 142.386719 191.671875 140.871094 191.566406 139.382812 191.390625 C 134.066406 190.761719 129.304688 189.316406 128.300781 186.164062 C 127.917969 185.015625 127.808594 183.84375 127.964844 182.648438 C 128.097656 181.753906 128.398438 180.921875 128.878906 180.15625 C 128.96875 180.007812 128.996094 179.847656 128.964844 179.675781 C 128.933594 179.503906 128.847656 179.367188 128.707031 179.265625 L 128.59375 179.175781 C 129.617188 177.800781 131.207031 176.589844 133.449219 175.667969 C 135.382812 174.863281 137.800781 174.28125 140.734375 173.996094 C 140.871094 174.636719 141.167969 175.183594 141.625 175.644531 C 142.257812 176.277344 143.019531 176.601562 143.910156 176.609375 Z M 143.90625 175.019531 C 143.449219 175.011719 143.058594 174.847656 142.734375 174.519531 C 142.496094 174.28125 142.339844 173.992188 142.273438 173.65625 C 142.207031 173.320312 142.238281 172.996094 142.367188 172.679688 C 142.492188 172.363281 142.699219 172.109375 142.976562 171.917969 C 143.257812 171.722656 143.570312 171.625 143.910156 171.617188 Z M 179.867188 154.585938 C 180.054688 154.257812 180.316406 154.003906 180.648438 153.824219 C 181.035156 153.625 181.449219 153.53125 181.882812 153.539062 L 202.53125 153.539062 C 202.964844 153.53125 203.378906 153.625 203.765625 153.824219 C 204.097656 154.003906 204.359375 154.257812 204.546875 154.585938 L 206.34375 157.769531 L 178.066406 157.769531 Z M 153.71875 155.722656 C 153.71875 155.53125 153.789062 155.367188 153.921875 155.230469 C 154.054688 155.097656 154.21875 155.03125 154.40625 155.03125 L 163.15625 155.03125 C 163.347656 155.03125 163.511719 155.097656 163.644531 155.234375 C 163.78125 155.367188 163.847656 155.53125 163.847656 155.722656 L 163.847656 157.832031 L 153.71875 157.832031 Z M 219.578125 201.390625 C 219.574219 201.675781 219.546875 201.957031 219.492188 202.234375 C 219.433594 202.515625 219.351562 202.785156 219.246094 203.046875 C 219.136719 203.308594 219.003906 203.558594 218.84375 203.792969 C 218.6875 204.03125 218.507812 204.25 218.308594 204.449219 C 218.109375 204.652344 217.890625 204.832031 217.65625 204.988281 C 217.417969 205.144531 217.171875 205.28125 216.910156 205.390625 C 216.648438 205.5 216.378906 205.582031 216.101562 205.636719 C 215.824219 205.691406 215.542969 205.722656 215.257812 205.722656 L 149.800781 205.722656 C 148.613281 205.71875 147.601562 205.292969 146.765625 204.449219 C 145.921875 203.605469 145.496094 202.585938 145.496094 201.386719 L 145.496094 173.847656 L 167.207031 173.847656 C 166.988281 174.183594 166.777344 174.527344 166.582031 174.875 C 166.382812 175.226562 166.195312 175.582031 166.023438 175.941406 C 165.847656 176.304688 165.683594 176.671875 165.535156 177.042969 C 165.382812 177.414062 165.246094 177.792969 165.117188 178.175781 C 164.992188 178.554688 164.878906 178.941406 164.777344 179.328125 C 164.675781 179.71875 164.589844 180.109375 164.511719 180.503906 C 164.4375 180.898438 164.375 181.296875 164.324219 181.695312 C 164.277344 182.09375 164.238281 182.492188 164.214844 182.894531 C 164.191406 183.296875 164.183594 183.695312 164.183594 184.097656 C 164.1875 184.5 164.203125 184.902344 164.234375 185.304688 C 164.261719 185.703125 164.304688 186.101562 164.359375 186.5 C 164.414062 186.898438 164.480469 187.296875 164.5625 187.6875 C 164.644531 188.082031 164.738281 188.472656 164.84375 188.859375 C 164.949219 189.246094 165.066406 189.632812 165.199219 190.011719 C 165.332031 190.390625 165.472656 190.765625 165.628906 191.136719 C 165.785156 191.503906 165.953125 191.871094 166.132812 192.230469 C 166.3125 192.589844 166.503906 192.941406 166.707031 193.289062 C 166.90625 193.636719 167.121094 193.976562 167.347656 194.308594 C 167.570312 194.640625 167.804688 194.964844 168.050781 195.28125 C 168.296875 195.601562 168.554688 195.910156 168.820312 196.207031 C 169.085938 196.507812 169.363281 196.800781 169.648438 197.082031 C 169.933594 197.363281 170.226562 197.636719 170.527344 197.902344 C 170.832031 198.164062 171.140625 198.417969 171.460938 198.660156 C 171.78125 198.902344 172.109375 199.132812 172.441406 199.355469 C 172.777344 199.574219 173.117188 199.785156 173.464844 199.984375 C 173.8125 200.183594 174.167969 200.371094 174.527344 200.546875 C 174.890625 200.722656 175.253906 200.886719 175.625 201.035156 C 175.996094 201.1875 176.371094 201.328125 176.753906 201.453125 C 177.132812 201.582031 177.515625 201.695312 177.902344 201.796875 C 178.292969 201.898438 178.683594 201.988281 179.074219 202.0625 C 179.46875 202.140625 179.863281 202.203125 180.261719 202.25 C 180.660156 202.300781 181.058594 202.339844 181.457031 202.363281 C 181.855469 202.386719 182.257812 202.398438 182.65625 202.394531 C 183.058594 202.390625 183.457031 202.375 183.859375 202.347656 C 184.257812 202.320312 184.65625 202.277344 185.050781 202.222656 C 185.449219 202.167969 185.84375 202.101562 186.238281 202.019531 C 186.628906 201.9375 187.019531 201.84375 187.40625 201.738281 C 187.789062 201.632812 188.171875 201.515625 188.550781 201.382812 C 188.929688 201.25 189.304688 201.105469 189.671875 200.953125 C 190.042969 200.796875 190.40625 200.628906 190.765625 200.449219 C 191.121094 200.269531 191.472656 200.078125 191.820312 199.875 C 192.164062 199.671875 192.503906 199.457031 192.835938 199.230469 C 193.167969 199.007812 193.492188 198.769531 193.808594 198.523438 C 194.125 198.277344 194.433594 198.019531 194.734375 197.753906 C 195.03125 197.488281 195.324219 197.210938 195.605469 196.925781 C 195.886719 196.640625 196.15625 196.34375 196.421875 196.042969 C 196.683594 195.738281 196.933594 195.425781 197.175781 195.105469 C 197.417969 194.785156 197.652344 194.457031 197.871094 194.121094 C 198.09375 193.789062 198.300781 193.445312 198.5 193.097656 C 198.699219 192.746094 198.886719 192.390625 199.058594 192.03125 C 199.234375 191.667969 199.398438 191.300781 199.550781 190.929688 C 199.699219 190.558594 199.839844 190.179688 199.964844 189.800781 C 200.09375 189.417969 200.207031 189.035156 200.308594 188.644531 C 200.410156 188.257812 200.5 187.863281 200.574219 187.46875 C 200.652344 187.074219 200.714844 186.679688 200.765625 186.28125 C 200.816406 185.882812 200.851562 185.480469 200.875 185.082031 C 200.898438 184.679688 200.910156 184.277344 200.910156 183.875 C 200.90625 183.472656 200.890625 183.074219 200.863281 182.671875 C 200.835938 182.273438 200.792969 181.871094 200.738281 181.472656 C 200.683594 181.074219 200.617188 180.679688 200.539062 180.285156 C 200.457031 179.890625 200.363281 179.5 200.257812 179.113281 C 200.152344 178.726562 200.035156 178.34375 199.902344 177.964844 C 199.773438 177.582031 199.628906 177.207031 199.476562 176.835938 C 199.320312 176.46875 199.152344 176.101562 198.972656 175.742188 C 198.945312 175.683594 198.90625 175.621094 198.878906 175.558594 C 198.769531 175.351562 198.660156 175.144531 198.542969 174.949219 L 198.371094 174.644531 C 198.25 174.445312 198.128906 174.246094 198.003906 174.035156 C 197.964844 173.972656 197.925781 173.910156 197.882812 173.84375 L 219.589844 173.84375 Z M 169.328125 173.847656 C 169.75 173.289062 170.207031 172.765625 170.699219 172.265625 L 170.777344 172.183594 C 171.164062 171.800781 171.566406 171.433594 171.988281 171.089844 C 172.40625 170.742188 172.84375 170.417969 173.296875 170.117188 C 173.75 169.8125 174.214844 169.535156 174.695312 169.277344 C 175.175781 169.019531 175.667969 168.789062 176.171875 168.578125 C 176.671875 168.371094 177.183594 168.1875 177.707031 168.03125 C 178.226562 167.871094 178.753906 167.738281 179.289062 167.632812 C 179.820312 167.527344 180.359375 167.449219 180.898438 167.394531 C 181.441406 167.34375 181.984375 167.316406 182.527344 167.316406 C 183.070312 167.316406 183.613281 167.34375 184.15625 167.398438 C 184.695312 167.449219 185.234375 167.53125 185.769531 167.636719 C 186.300781 167.746094 186.828125 167.878906 187.347656 168.035156 C 187.871094 168.195312 188.382812 168.378906 188.882812 168.585938 C 189.386719 168.796875 189.878906 169.03125 190.355469 169.285156 C 190.835938 169.542969 191.300781 169.824219 191.753906 170.128906 C 192.207031 170.429688 192.644531 170.757812 193.0625 171.101562 C 193.484375 171.449219 193.886719 171.816406 194.269531 172.199219 L 194.351562 172.28125 C 194.84375 172.777344 195.300781 173.304688 195.722656 173.863281 C 196.347656 174.683594 196.890625 175.554688 197.355469 176.476562 C 197.816406 177.398438 198.191406 178.355469 198.480469 179.347656 C 198.765625 180.339844 198.957031 181.347656 199.058594 182.378906 C 199.15625 183.40625 199.160156 184.433594 199.070312 185.460938 C 198.976562 186.488281 198.792969 187.5 198.515625 188.496094 C 198.238281 189.488281 197.871094 190.449219 197.414062 191.375 C 196.957031 192.300781 196.417969 193.175781 195.800781 194 C 195.183594 194.828125 194.492188 195.589844 193.734375 196.285156 C 192.976562 196.980469 192.160156 197.601562 191.285156 198.148438 C 190.410156 198.691406 189.492188 199.152344 188.535156 199.527344 C 187.574219 199.898438 186.589844 200.183594 185.578125 200.371094 C 184.566406 200.5625 183.542969 200.65625 182.515625 200.65625 C 181.484375 200.65625 180.464844 200.5625 179.453125 200.371094 C 178.441406 200.183594 177.457031 199.898438 176.496094 199.527344 C 175.539062 199.152344 174.621094 198.691406 173.746094 198.148438 C 172.871094 197.601562 172.054688 196.980469 171.296875 196.285156 C 170.539062 195.589844 169.847656 194.828125 169.230469 194 C 168.613281 193.175781 168.074219 192.300781 167.617188 191.375 C 167.160156 190.449219 166.792969 189.488281 166.515625 188.496094 C 166.238281 187.5 166.050781 186.488281 165.960938 185.460938 C 165.871094 184.433594 165.875 183.40625 165.972656 182.378906 C 166.074219 181.347656 166.265625 180.339844 166.550781 179.347656 C 166.839844 178.355469 167.210938 177.398438 167.675781 176.476562 C 168.140625 175.554688 168.683594 174.683594 169.308594 173.863281 Z M 219.578125 172.265625 L 196.699219 172.265625 C 196.324219 171.808594 195.925781 171.367188 195.511719 170.949219 C 195.085938 170.523438 194.640625 170.117188 194.175781 169.734375 C 193.710938 169.351562 193.226562 168.992188 192.726562 168.65625 C 192.226562 168.324219 191.710938 168.011719 191.179688 167.730469 C 190.652344 167.445312 190.109375 167.1875 189.550781 166.957031 C 188.996094 166.726562 188.429688 166.523438 187.855469 166.347656 C 187.28125 166.171875 186.695312 166.027344 186.105469 165.910156 C 185.515625 165.789062 184.921875 165.703125 184.324219 165.644531 C 183.726562 165.582031 183.125 165.554688 182.523438 165.554688 C 181.921875 165.554688 181.324219 165.582031 180.726562 165.644531 C 180.125 165.703125 179.53125 165.789062 178.941406 165.910156 C 178.351562 166.027344 177.769531 166.171875 177.195312 166.347656 C 176.617188 166.523438 176.054688 166.726562 175.496094 166.957031 C 174.941406 167.1875 174.398438 167.445312 173.867188 167.730469 C 173.339844 168.011719 172.824219 168.324219 172.324219 168.65625 C 171.824219 168.992188 171.339844 169.351562 170.875 169.734375 C 170.410156 170.117188 169.964844 170.523438 169.539062 170.949219 C 169.121094 171.367188 168.722656 171.8125 168.347656 172.265625 L 145.480469 172.265625 L 145.480469 163.738281 C 145.484375 163.453125 145.511719 163.171875 145.566406 162.894531 C 145.625 162.617188 145.707031 162.347656 145.816406 162.082031 C 145.921875 161.820312 146.058594 161.570312 146.214844 161.335938 C 146.371094 161.097656 146.550781 160.878906 146.75 160.679688 C 146.953125 160.480469 147.171875 160.300781 147.40625 160.140625 C 147.640625 159.984375 147.890625 159.851562 148.152344 159.742188 C 148.414062 159.632812 148.683594 159.550781 148.960938 159.492188 C 149.238281 159.4375 149.519531 159.410156 149.800781 159.40625 L 215.257812 159.40625 C 216.453125 159.410156 217.46875 159.832031 218.3125 160.679688 C 219.152344 161.519531 219.574219 162.535156 219.578125 163.726562 Z M 222.332031 174.519531 C 222.007812 174.84375 221.613281 175.007812 221.15625 175.015625 L 221.15625 171.617188 C 221.613281 171.625 222.003906 171.789062 222.332031 172.113281 C 222.488281 172.273438 222.609375 172.457031 222.695312 172.667969 C 222.78125 172.875 222.824219 173.089844 222.824219 173.316406 C 222.824219 173.542969 222.78125 173.757812 222.695312 173.964844 C 222.609375 174.175781 222.488281 174.359375 222.332031 174.519531 Z M 253.203125 159.289062 C 252.148438 163.765625 245.21875 166.078125 238.125 167.757812 C 237.945312 167.796875 237.804688 167.898438 237.707031 168.054688 C 237.609375 168.210938 237.582031 168.378906 237.625 168.5625 L 237.652344 168.679688 C 236.042969 169.046875 234.457031 169.386719 232.921875 169.710938 C 229.511719 170.4375 226.378906 171.101562 224.089844 171.921875 C 223.824219 171.347656 223.425781 170.890625 222.894531 170.550781 C 222.363281 170.207031 221.78125 170.035156 221.152344 170.027344 L 221.152344 163.742188 C 221.152344 162.957031 221.003906 162.203125 220.703125 161.480469 C 220.402344 160.757812 219.976562 160.117188 219.421875 159.566406 C 218.871094 159.011719 218.234375 158.582031 217.515625 158.28125 C 216.792969 157.980469 216.042969 157.832031 215.261719 157.832031 L 208.1875 157.832031 L 205.910156 153.808594 C 205.574219 153.210938 205.105469 152.75 204.5 152.433594 C 203.882812 152.109375 203.222656 151.949219 202.527344 151.953125 L 190.507812 151.953125 C 193.324219 145.070312 196.1875 138.617188 199.65625 133.847656 C 206.210938 124.835938 215.289062 121.824219 231.464844 133.667969 C 249.199219 146.648438 254.347656 154.4375 253.203125 159.296875 Z M 253.203125 159.289062" fill-rule="evenodd"/></g><path fill="#203344" d="M 212.144531 163.15625 C 211.808594 162.820312 211.40625 162.648438 210.929688 162.644531 L 202.527344 162.644531 C 202.050781 162.648438 201.644531 162.820312 201.3125 163.15625 C 200.976562 163.492188 200.804688 163.898438 200.800781 164.375 L 200.800781 168.410156 C 200.804688 168.886719 200.972656 169.292969 201.3125 169.625 C 201.644531 169.964844 202.050781 170.136719 202.527344 170.136719 L 210.921875 170.136719 C 211.394531 170.136719 211.800781 169.964844 212.136719 169.625 C 212.472656 169.289062 212.640625 168.882812 212.644531 168.410156 L 212.644531 164.386719 C 212.640625 163.910156 212.472656 163.503906 212.136719 163.167969 Z M 211.078125 168.417969 C 211.078125 168.460938 211.066406 168.496094 211.035156 168.527344 C 211.003906 168.558594 210.96875 168.574219 210.925781 168.574219 L 202.527344 168.574219 C 202.484375 168.574219 202.445312 168.558594 202.417969 168.527344 C 202.386719 168.496094 202.371094 168.460938 202.371094 168.417969 L 202.371094 164.386719 C 202.371094 164.339844 202.386719 164.304688 202.417969 164.273438 C 202.449219 164.242188 202.484375 164.230469 202.527344 164.230469 L 210.921875 164.230469 C 210.964844 164.226562 211 164.242188 211.035156 164.273438 C 211.0625 164.304688 211.078125 164.339844 211.074219 164.386719 Z M 211.078125 168.417969" fill-rule="evenodd"/><path fill="#203344" d="M 128.578125 136.609375 C 128.625 136.640625 128.632812 136.679688 128.605469 136.730469 C 128.476562 136.949219 128.207031 137.691406 129.679688 138.160156 C 129.71875 138.171875 129.726562 138.195312 129.710938 138.234375 C 129.621094 138.394531 129.457031 138.902344 130.621094 139.261719 C 130.621094 139.261719 130.621094 139.277344 130.621094 139.277344 C 130.488281 139.359375 129.777344 139.839844 132.183594 140.296875 L 132.183594 140.324219 C 131.953125 140.441406 130.757812 141.097656 133.121094 141.316406 C 133.121094 141.316406 133.136719 141.335938 133.121094 141.339844 C 132.929688 141.5 131.878906 142.445312 134.214844 142.578125 C 134.230469 142.589844 134.230469 142.601562 134.214844 142.609375 C 134.042969 142.792969 133.273438 143.691406 135.125 143.613281 C 135.144531 143.609375 135.148438 143.621094 135.144531 143.636719 C 135.09375 143.78125 134.890625 144.601562 136.234375 144.421875 C 136.234375 144.421875 136.253906 144.441406 136.234375 144.445312 C 136.101562 144.609375 135.476562 145.441406 136.839844 145.421875 C 136.859375 145.519531 137.105469 146.730469 137.582031 146.1875 L 137.601562 146.1875 C 137.601562 146.339844 137.546875 146.972656 138.023438 146.917969 C 138.050781 147.027344 138.253906 147.851562 138.976562 148.027344 C 139 148.035156 139.007812 148.050781 138.996094 148.070312 C 138.589844 148.636719 133.226562 156.015625 131.085938 157.734375 C 131.085938 157.734375 130.507812 158.34375 131.234375 158.246094 C 131.207031 158.328125 131.144531 158.675781 131.597656 158.394531 L 131.617188 158.394531 C 131.8125 158.246094 134.882812 155.980469 135.105469 155.726562 C 135.15625 155.671875 140.203125 153.792969 140.507812 153.425781 L 140.527344 153.425781 C 146.664062 152.578125 149.511719 148.445312 149.8125 145.320312 C 149.8125 145.320312 152.21875 142.757812 152.496094 140.375 C 152.496094 140.375 152.863281 139.203125 154.691406 138.574219 C 156.523438 137.945312 160.15625 136.996094 160.203125 137.050781 C 160.203125 137.050781 160.679688 136.808594 160.132812 136.785156 C 160.132812 136.785156 156.546875 137.046875 153.996094 137.863281 C 153.574219 137.984375 153.152344 137.996094 152.726562 137.898438 C 151.511719 137.542969 148.957031 136.859375 147.480469 138.441406 C 146.894531 139.144531 146.386719 139.898438 145.960938 140.710938 C 145.871094 140.917969 145.742188 141.101562 145.582031 141.261719 C 145.335938 141.5 144.976562 141.722656 144.601562 141.488281 C 144.625 141.394531 134.988281 130.519531 128.8125 131.273438 C 128.8125 131.273438 127.832031 131.636719 129.21875 132.085938 C 129.269531 132.105469 129.296875 132.140625 129.304688 132.191406 C 129.308594 132.246094 129.289062 132.285156 129.246094 132.3125 C 128.824219 132.566406 128.636719 133.246094 130.460938 133.507812 C 130.476562 133.507812 130.480469 133.535156 130.460938 133.539062 C 129.207031 133.84375 131.523438 135.257812 133.476562 136.425781 C 134.195312 136.777344 134.871094 137.199219 135.5 137.699219 C 135.519531 137.71875 135.542969 137.734375 135.570312 137.753906 L 134.820312 137.28125 C 133.417969 136.472656 131.933594 135.863281 130.363281 135.457031 C 129.992188 135.410156 129.574219 135.375 129.105469 135.347656 C 128.609375 135.332031 128.125 135.394531 127.648438 135.539062 C 127.554688 135.753906 127.753906 136.074219 128.578125 136.609375 Z M 150.097656 139.535156 C 150.113281 139.375 150.183594 139.246094 150.308594 139.148438 C 150.433594 139.050781 150.574219 139.011719 150.730469 139.035156 C 150.890625 139.054688 151.015625 139.128906 151.109375 139.257812 C 151.203125 139.386719 151.234375 139.53125 151.207031 139.6875 C 151.179688 139.84375 151.101562 139.96875 150.96875 140.058594 C 150.839844 140.148438 150.695312 140.175781 150.539062 140.144531 C 150.394531 140.121094 150.28125 140.046875 150.191406 139.929688 C 150.105469 139.8125 150.074219 139.679688 150.097656 139.535156 Z M 150.097656 139.535156" fill-rule="evenodd"/><path fill="#FFF" d="M 177.539062 183.804688 C 178.015625 183.804688 178.472656 183.710938 178.914062 183.527344 C 179.355469 183.339844 179.742188 183.078125 180.078125 182.742188 C 180.414062 182.402344 180.671875 182.011719 180.855469 181.570312 C 181.035156 181.125 181.125 180.664062 181.125 180.1875 C 181.125 179.710938 181.03125 179.25 180.847656 178.808594 C 180.664062 178.367188 180.40625 177.976562 180.066406 177.640625 C 179.730469 177.300781 179.339844 177.042969 178.898438 176.859375 C 178.457031 176.675781 178 176.585938 177.523438 176.585938 C 177.046875 176.585938 176.589844 176.679688 176.148438 176.863281 C 175.707031 177.046875 175.320312 177.304688 174.980469 177.644531 C 174.644531 177.984375 174.386719 178.375 174.203125 178.816406 C 174.019531 179.257812 173.929688 179.71875 173.929688 180.195312 C 173.929688 180.675781 174.023438 181.136719 174.207031 181.578125 C 174.390625 182.019531 174.652344 182.410156 174.988281 182.75 C 175.328125 183.089844 175.71875 183.347656 176.160156 183.53125 C 176.601562 183.714844 177.0625 183.804688 177.539062 183.804688 Z M 177.539062 183.804688" fill-rule="evenodd"/><g fill="#203344"><use x="112.508" y="231.534" xmlns:xlink="http://www.w3.org/1999/xlink" xlink:href="#b" xlink:type="simple" xlink:actuate="onLoad" xlink:show="embed"/></g><g fill="#203344"><use x="126.665" y="231.534" xmlns:xlink="http://www.w3.org/1999/xlink" xlink:href="#c" xlink:type="simple" xlink:actuate="onLoad" xlink:show="embed"/></g><g fill="#203344"><use x="143.951" y="231.534" xmlns:xlink="http://www.w3.org/1999/xlink" xlink:href="#d" xlink:type="simple" xlink:actuate="onLoad" xlink:show="embed"/></g><g fill="#203344"><use x="158.697" y="231.534" xmlns:xlink="http://www.w3.org/1999/xlink" xlink:href="#c" xlink:type="simple" xlink:actuate="onLoad" xlink:show="embed"/></g><g fill="#203344"><use x="175.983" y="231.534" xmlns:xlink="http://www.w3.org/1999/xlink" xlink:href="#e" xlink:type="simple" xlink:actuate="onLoad" xlink:show="embed"/></g><g fill="#203344"><use x="191.116" y="231.534" xmlns:xlink="http://www.w3.org/1999/xlink" xlink:href="#f" xlink:type="simple" xlink:actuate="onLoad" xlink:show="embed"/></g><g fill="#203344"><use x="205.912" y="231.534" xmlns:xlink="http://www.w3.org/1999/xlink" xlink:href="#g" xlink:type="simple" xlink:actuate="onLoad" xlink:show="embed"/></g><g fill="#203344"><use x="220.068" y="231.534" xmlns:xlink="http://www.w3.org/1999/xlink" xlink:href="#h" xlink:type="simple" xlink:actuate="onLoad" xlink:show="embed"/></g><g fill="#203344"><use x="236.16" y="231.534" xmlns:xlink="http://www.w3.org/1999/xlink" xlink:href="#e" xlink:type="simple" xlink:actuate="onLoad" xlink:show="embed"/></g><g fill="#203344"><use x="251.292" y="231.534" xmlns:xlink="http://www.w3.org/1999/xlink" xlink:href="#i" xlink:type="simple" xlink:actuate="onLoad" xlink:show="embed"/></g></svg>